# xmcd CD database file
#
# Track frame offsets:
#	150
#	42817
#	122272
#	141577
#	150662
#	178902
#	202402
#
# Disc length: 3866 seconds
#
# Revision: 1
# Processed by: cddbd v1.5.2PL0 Copyright (c) Steve Scherf et al.
# Submitted via: CDex 1.70beta2
#
DISCID=650f1807
DTITLE=Alberto Almarza (flute), George Mgrdichian (oud), Janna Baty (soprano), Boston Modern Orchestra Project, Gil Rose - Vali - Flute Concerto - Folk Songs - Deyláman
DYEAR=2000
DGENRE=Classical
TTITLE0=Vali - Flute Concerto - I. Adagio
TTITLE1=Vali - Flute Concerto - II. Lento, Molto Allegro
TTITLE2=Vali - Folk Songs (Set No.10) - Love Song
TTITLE3=Vali - Folk Songs (Set No.10) - Song from Luristan
TTITLE4=Vali - Folk Songs (Set No.10) - Lament, in Memoriam Olivier Messiaen
TTITLE5=Vali - Folk Songs (Set No.10) - Popular Song from Teheran
TTITLE6=Vali - Deylàman
EXTD=YEAR: 2000
EXTT0=
EXTT1=
EXTT2=
EXTT3=
EXTT4=
EXTT5=
EXTT6=
PLAYORDER=
